<?xml version="1.0" encoding="UTF-8" standalone="no"?>
<svg
   xmlns:dc="http://purl.org/dc/elements/1.1/"
   xmlns:cc="http://creativecommons.org/ns#"
   xmlns:rdf="http://www.w3.org/1999/02/22-rdf-syntax-ns#"
   xmlns:svg="http://www.w3.org/2000/svg"
   xmlns="http://www.w3.org/2000/svg"
   xmlns:sodipodi="http://sodipodi.sourceforge.net/DTD/sodipodi-0.dtd"
   xmlns:inkscape="http://www.inkscape.org/namespaces/inkscape"
   version="1.1"
   id="svg2"
   xml:space="preserve"
   width="262.66666"
   height="194.66667"
   viewBox="0 0 262.66666 194.66667"
   sodipodi:docname="Currentdivider_rev.3.eps"><metadata
     id="metadata8"><rdf:RDF><cc:Work
         rdf:about=""><dc:format>image/svg+xml</dc:format><dc:type
           rdf:resource="http://purl.org/dc/dcmitype/StillImage" /></cc:Work></rdf:RDF></metadata><defs
     id="defs6" /><sodipodi:namedview
     pagecolor="#ffffff"
     bordercolor="#666666"
     borderopacity="1"
     objecttolerance="10"
     gridtolerance="10"
     guidetolerance="10"
     inkscape:pageopacity="0"
     inkscape:pageshadow="2"
     inkscape:window-width="640"
     inkscape:window-height="480"
     id="namedview4" /><g
     id="g10"
     inkscape:groupmode="layer"
     inkscape:label="ink_ext_XXXXXX"
     transform="matrix(1.3333333,0,0,-1.3333333,0,194.66667)"><g
       id="g12"
       transform="scale(0.1)"><path
         d="m 1180,797.5 v 105"
         style="fill:none;stroke:#000000;stroke-width:9.75;stroke-linecap:round;stroke-linejoin:miter;stroke-miterlimit:6;stroke-dasharray:none;stroke-opacity:1"
         id="path14" /><path
         d="m 1180,527.5 v -105"
         style="fill:none;stroke:#000000;stroke-width:9.75;stroke-linecap:round;stroke-linejoin:miter;stroke-miterlimit:6;stroke-dasharray:none;stroke-opacity:1"
         id="path16" /><path
         d="m 1180,797.5 -52.5,-22.5 105,-45 -105,-45 105,-45 -105,-45 105,-45 -52.5,-22.5"
         style="fill:none;stroke:#000000;stroke-width:9.75;stroke-linecap:round;stroke-linejoin:miter;stroke-miterlimit:6;stroke-dasharray:none;stroke-opacity:1"
         id="path18" /><path
         d="m 1780,797.5 v 105"
         style="fill:none;stroke:#000000;stroke-width:9.75;stroke-linecap:round;stroke-linejoin:miter;stroke-miterlimit:6;stroke-dasharray:none;stroke-opacity:1"
         id="path20" /><path
         d="m 1780,527.5 v -105"
         style="fill:none;stroke:#000000;stroke-width:9.75;stroke-linecap:round;stroke-linejoin:miter;stroke-miterlimit:6;stroke-dasharray:none;stroke-opacity:1"
         id="path22" /><path
         d="m 1780,797.5 -52.5,-22.5 105,-45 -105,-45 105,-45 -105,-45 105,-45 -52.5,-22.5"
         style="fill:none;stroke:#000000;stroke-width:9.75;stroke-linecap:round;stroke-linejoin:miter;stroke-miterlimit:6;stroke-dasharray:none;stroke-opacity:1"
         id="path24" /><path
         d="m 1780,902.5 v 360 h -600"
         style="fill:none;stroke:#000000;stroke-width:9.75;stroke-linecap:round;stroke-linejoin:miter;stroke-miterlimit:6;stroke-dasharray:none;stroke-opacity:1"
         id="path26" /><path
         d="m 1180,62.5 h 600 v 360"
         style="fill:none;stroke:#000000;stroke-width:9.75;stroke-linecap:round;stroke-linejoin:miter;stroke-miterlimit:6;stroke-dasharray:none;stroke-opacity:1"
         id="path28" /><path
         d="m 475,1232.5 c 37.5,18.75 48.75,18.75 105,30 -56.25,11.25 -67.5,11.25 -105,30 7.5,-22.5 7.5,-37.5 0,-60"
         style="fill:#000000;fill-opacity:1;fill-rule:evenodd;stroke:none"
         id="path30" /><path
         d="m 1150,1067.5 c 18.75,-37.5 18.75,-48.75 30,-105 11.25,56.25 11.25,67.5 30,105 -22.5,-7.5 -37.5,-7.5 -60,0"
         style="fill:#000000;fill-opacity:1;fill-rule:evenodd;stroke:none"
         id="path32" /><path
         d="m 1750,1067.5 c 18.75,-37.5 18.75,-48.75 30,-105 11.25,56.25 11.25,67.5 30,105 -22.5,-7.5 -37.5,-7.5 -60,0"
         style="fill:#000000;fill-opacity:1;fill-rule:evenodd;stroke:none"
         id="path34" /><g
         id="g36"
         transform="scale(10)"><text
           transform="matrix(1,0,0,-1,50.5016,132.25)"
           style="font-variant:normal;font-weight:normal;font-size:15px;font-family:Helvetica;-inkscape-font-specification:Helvetica;writing-mode:lr-tb;fill:#000000;fill-opacity:1;fill-rule:nonzero;stroke:none"
           id="text40"><tspan
             x="0"
             y="0"
             id="tspan38">I</tspan></text><text
           transform="matrix(1,0,0,-1,54.67152,128.93359)"
           style="font-variant:normal;font-weight:normal;font-size:10.05px;font-family:Helvetica;-inkscape-font-specification:Helvetica;writing-mode:lr-tb;fill:#000000;fill-opacity:1;fill-rule:nonzero;stroke:none"
           id="text44"><tspan
             x="0"
             y="0"
             id="tspan42">T</tspan></text><text
           transform="matrix(1,0,0,-1,92.60782,66.24999)"
           style="font-variant:normal;font-weight:normal;font-size:15px;font-family:Helvetica;-inkscape-font-specification:Helvetica;writing-mode:lr-tb;fill:#000000;fill-opacity:1;fill-rule:nonzero;stroke:none"
           id="text48"><tspan
             x="0"
             y="0"
             id="tspan46">R</tspan></text><text
           transform="matrix(1,0,0,-1,103.43792,62.93358)"
           style="font-variant:normal;font-weight:normal;font-size:10.05px;font-family:Helvetica;-inkscape-font-specification:Helvetica;writing-mode:lr-tb;fill:#000000;fill-opacity:1;fill-rule:nonzero;stroke:none"
           id="text52"><tspan
             x="0"
             y="0"
             id="tspan50">1</tspan></text><text
           transform="matrix(1,0,0,-1,152.60782,66.24999)"
           style="font-variant:normal;font-weight:normal;font-size:15px;font-family:Helvetica;-inkscape-font-specification:Helvetica;writing-mode:lr-tb;fill:#000000;fill-opacity:1;fill-rule:nonzero;stroke:none"
           id="text56"><tspan
             x="0"
             y="0"
             id="tspan54">R</tspan></text><text
           transform="matrix(1,0,0,-1,163.43792,62.93358)"
           style="font-variant:normal;font-weight:normal;font-size:10.05px;font-family:Helvetica;-inkscape-font-specification:Helvetica;writing-mode:lr-tb;fill:#000000;fill-opacity:1;fill-rule:nonzero;stroke:none"
           id="text60"><tspan
             x="0"
             y="0"
             id="tspan58">2</tspan></text><text
           transform="matrix(1,0,0,-1,122.50162,102.24998)"
           style="font-variant:normal;font-weight:normal;font-size:15px;font-family:Helvetica;-inkscape-font-specification:Helvetica;writing-mode:lr-tb;fill:#000000;fill-opacity:1;fill-rule:nonzero;stroke:none"
           id="text64"><tspan
             x="0"
             y="0"
             id="tspan62">I</tspan></text><text
           transform="matrix(1,0,0,-1,126.67154,98.93357)"
           style="font-variant:normal;font-weight:normal;font-size:10.05px;font-family:Helvetica;-inkscape-font-specification:Helvetica;writing-mode:lr-tb;fill:#000000;fill-opacity:1;fill-rule:nonzero;stroke:none"
           id="text68"><tspan
             x="0"
             y="0"
             id="tspan66">1</tspan></text><text
           transform="matrix(1,0,0,-1,182.50164,102.24998)"
           style="font-variant:normal;font-weight:normal;font-size:15px;font-family:Helvetica;-inkscape-font-specification:Helvetica;writing-mode:lr-tb;fill:#000000;fill-opacity:1;fill-rule:nonzero;stroke:none"
           id="text72"><tspan
             x="0"
             y="0"
             id="tspan70">I</tspan></text><text
           transform="matrix(1,0,0,-1,186.67156,98.93357)"
           style="font-variant:normal;font-weight:normal;font-size:10.05px;font-family:Helvetica;-inkscape-font-specification:Helvetica;writing-mode:lr-tb;fill:#000000;fill-opacity:1;fill-rule:nonzero;stroke:none"
           id="text76"><tspan
             x="0"
             y="0"
             id="tspan74">2</tspan></text></g><path
         d="m 160,1262.5 h 1020 v -360"
         style="fill:none;stroke:#000000;stroke-width:9.75;stroke-linecap:round;stroke-linejoin:miter;stroke-miterlimit:6;stroke-dasharray:none;stroke-opacity:1"
         id="path78" /><path
         d="M 160,62.5 H 1180"
         style="fill:none;stroke:#000000;stroke-width:9.75;stroke-linecap:round;stroke-linejoin:miter;stroke-miterlimit:6;stroke-dasharray:none;stroke-opacity:1"
         id="path80" /><path
         d="m 1180,62.5 v 360"
         style="fill:none;stroke:#000000;stroke-width:9.75;stroke-linecap:round;stroke-linejoin:miter;stroke-miterlimit:6;stroke-dasharray:none;stroke-opacity:1"
         id="path82" /><path
         d="m 182.5,1262.5 c 0,12.43 -10.074,22.5 -22.5,22.5 -12.426,0 -22.5,-10.07 -22.5,-22.5 0,-12.43 10.074,-22.5 22.5,-22.5 12.426,0 22.5,10.07 22.5,22.5"
         style="fill:#000000;fill-opacity:1;fill-rule:evenodd;stroke:none"
         id="path84" /><path
         d="M 182.5,62.5 C 182.5,74.9258 172.426,85 160,85 147.574,85 137.5,74.9258 137.5,62.5 137.5,50.0742 147.574,40 160,40 c 12.426,0 22.5,10.0742 22.5,22.5"
         style="fill:#000000;fill-opacity:1;fill-rule:evenodd;stroke:none"
         id="path86" /><g
         id="g88"
         transform="scale(10)"><text
           transform="matrix(1,0,0,-1,3.55,66.25)"
           style="font-variant:normal;font-weight:normal;font-size:15px;font-family:Helvetica;-inkscape-font-specification:Helvetica;writing-mode:lr-tb;fill:#000000;fill-opacity:1;fill-rule:nonzero;stroke:none"
           id="text92"><tspan
             x="0"
             y="0"
             id="tspan90">V</tspan></text><text
           transform="matrix(1,0,0,-1,13.5551,62.93359)"
           style="font-variant:normal;font-weight:normal;font-size:10.05px;font-family:Helvetica;-inkscape-font-specification:Helvetica;writing-mode:lr-tb;fill:#000000;fill-opacity:1;fill-rule:nonzero;stroke:none"
           id="text96"><tspan
             x="0"
             y="0"
             id="tspan94">x</tspan></text></g><path
         d="m 160,1142.5 v -360"
         style="fill:none;stroke:#000000;stroke-width:9.75;stroke-linecap:round;stroke-linejoin:miter;stroke-miterlimit:6;stroke-dasharray:none;stroke-opacity:1"
         id="path98" /><path
         d="m 160,182.5 v 360"
         style="fill:none;stroke:#000000;stroke-width:9.75;stroke-linecap:round;stroke-linejoin:miter;stroke-miterlimit:6;stroke-dasharray:none;stroke-opacity:1"
         id="path100" /><path
         d="m 190,1097.5 c -18.75,37.5 -18.75,48.75 -30,105 -11.25,-56.25 -11.25,-67.5 -30,-105 22.5,7.5 37.5,7.5 60,0"
         style="fill:#000000;fill-opacity:1;fill-rule:evenodd;stroke:none"
         id="path102" /><path
         d="m 130,227.5 c 18.75,-37.5 18.75,-48.75 30,-105 11.25,56.25 11.25,67.5 30,105 -22.5,-7.5 -37.5,-7.5 -60,0"
         style="fill:#000000;fill-opacity:1;fill-rule:evenodd;stroke:none"
         id="path104" /></g></g></svg>
