<?xml version="1.0" encoding="UTF-8" standalone="no"?>
<svg
   xmlns:dc="http://purl.org/dc/elements/1.1/"
   xmlns:cc="http://creativecommons.org/ns#"
   xmlns:rdf="http://www.w3.org/1999/02/22-rdf-syntax-ns#"
   xmlns:svg="http://www.w3.org/2000/svg"
   xmlns="http://www.w3.org/2000/svg"
   xmlns:sodipodi="http://sodipodi.sourceforge.net/DTD/sodipodi-0.dtd"
   xmlns:inkscape="http://www.inkscape.org/namespaces/inkscape"
   version="1.1"
   id="svg2"
   xml:space="preserve"
   width="350.66666"
   height="182.66667"
   viewBox="0 0 350.66666 182.66667"
   sodipodi:docname="nodal_analysis_currents.eps"><metadata
     id="metadata8"><rdf:RDF><cc:Work
         rdf:about=""><dc:format>image/svg+xml</dc:format><dc:type
           rdf:resource="http://purl.org/dc/dcmitype/StillImage" /></cc:Work></rdf:RDF></metadata><defs
     id="defs6" /><sodipodi:namedview
     pagecolor="#ffffff"
     bordercolor="#666666"
     borderopacity="1"
     objecttolerance="10"
     gridtolerance="10"
     guidetolerance="10"
     inkscape:pageopacity="0"
     inkscape:pageshadow="2"
     inkscape:window-width="640"
     inkscape:window-height="480"
     id="namedview4" /><g
     id="g10"
     inkscape:groupmode="layer"
     inkscape:label="ink_ext_XXXXXX"
     transform="matrix(1.3333333,0,0,-1.3333333,0,182.66667)"><g
       id="g12"
       transform="scale(0.1)"><path
         d="m 580,640 c 0,66.273 -53.727,120 -120,120 -66.273,0 -120,-53.727 -120,-120 0,-66.273 53.727,-120 120,-120 66.273,0 120,53.727 120,120"
         style="fill:none;stroke:#000000;stroke-width:9.75;stroke-linecap:round;stroke-linejoin:miter;stroke-miterlimit:6;stroke-dasharray:none;stroke-opacity:1"
         id="path14" /><path
         d="M 460,880 V 760"
         style="fill:none;stroke:#000000;stroke-width:9.75;stroke-linecap:round;stroke-linejoin:miter;stroke-miterlimit:6;stroke-dasharray:none;stroke-opacity:1"
         id="path16" /><path
         d="M 460,400 V 520"
         style="fill:none;stroke:#000000;stroke-width:9.75;stroke-linecap:round;stroke-linejoin:miter;stroke-miterlimit:6;stroke-dasharray:none;stroke-opacity:1"
         id="path18" /><g
         id="g20"
         transform="scale(10)"><text
           transform="matrix(1,0,0,-1,42.0391,66.7586)"
           style="font-variant:normal;font-weight:normal;font-size:15px;font-family:Symbol;-inkscape-font-specification:Symbol;writing-mode:lr-tb;fill:#000000;fill-opacity:1;fill-rule:nonzero;stroke:none"
           id="text26"><tspan
             x="0"
             y="0"
             id="tspan22">+</tspan><tspan
             x="0.036718801"
             y="11.7102"
             id="tspan24">−</tspan></text></g><path
         d="M 1120,775 V 880"
         style="fill:none;stroke:#000000;stroke-width:9.75;stroke-linecap:round;stroke-linejoin:miter;stroke-miterlimit:6;stroke-dasharray:none;stroke-opacity:1"
         id="path28" /><path
         d="M 1120,505 V 400"
         style="fill:none;stroke:#000000;stroke-width:9.75;stroke-linecap:round;stroke-linejoin:miter;stroke-miterlimit:6;stroke-dasharray:none;stroke-opacity:1"
         id="path30" /><path
         d="m 1120,775 -52.5,-22.5 105,-45 -105,-45 105,-45 -105,-45 105,-45 L 1120,505"
         style="fill:none;stroke:#000000;stroke-width:9.75;stroke-linecap:round;stroke-linejoin:miter;stroke-miterlimit:6;stroke-dasharray:none;stroke-opacity:1"
         id="path32" /><path
         d="M 1720,775 V 880"
         style="fill:none;stroke:#000000;stroke-width:9.75;stroke-linecap:round;stroke-linejoin:miter;stroke-miterlimit:6;stroke-dasharray:none;stroke-opacity:1"
         id="path34" /><path
         d="M 1720,505 V 400"
         style="fill:none;stroke:#000000;stroke-width:9.75;stroke-linecap:round;stroke-linejoin:miter;stroke-miterlimit:6;stroke-dasharray:none;stroke-opacity:1"
         id="path36" /><path
         d="m 1720,775 -52.5,-22.5 105,-45 -105,-45 105,-45 -105,-45 105,-45 L 1720,505"
         style="fill:none;stroke:#000000;stroke-width:9.75;stroke-linecap:round;stroke-linejoin:miter;stroke-miterlimit:6;stroke-dasharray:none;stroke-opacity:1"
         id="path38" /><path
         d="M 2320,775 V 880"
         style="fill:none;stroke:#000000;stroke-width:9.75;stroke-linecap:round;stroke-linejoin:miter;stroke-miterlimit:6;stroke-dasharray:none;stroke-opacity:1"
         id="path40" /><path
         d="M 2320,505 V 400"
         style="fill:none;stroke:#000000;stroke-width:9.75;stroke-linecap:round;stroke-linejoin:miter;stroke-miterlimit:6;stroke-dasharray:none;stroke-opacity:1"
         id="path42" /><path
         d="m 2320,775 -52.5,-22.5 105,-45 -105,-45 105,-45 -105,-45 105,-45 L 2320,505"
         style="fill:none;stroke:#000000;stroke-width:9.75;stroke-linecap:round;stroke-linejoin:miter;stroke-miterlimit:6;stroke-dasharray:none;stroke-opacity:1"
         id="path44" /><path
         d="M 685,1120 H 580"
         style="fill:none;stroke:#000000;stroke-width:9.75;stroke-linecap:round;stroke-linejoin:miter;stroke-miterlimit:6;stroke-dasharray:none;stroke-opacity:1"
         id="path46" /><path
         d="m 955,1120 h 105"
         style="fill:none;stroke:#000000;stroke-width:9.75;stroke-linecap:round;stroke-linejoin:miter;stroke-miterlimit:6;stroke-dasharray:none;stroke-opacity:1"
         id="path48" /><path
         d="m 685,1120 22.5,-52.5 45,105 45,-105 45,105 45,-105 45,105 22.5,-52.5"
         style="fill:none;stroke:#000000;stroke-width:9.75;stroke-linecap:round;stroke-linejoin:miter;stroke-miterlimit:6;stroke-dasharray:none;stroke-opacity:1"
         id="path50" /><path
         d="M 1285,1120 H 1180"
         style="fill:none;stroke:#000000;stroke-width:9.75;stroke-linecap:round;stroke-linejoin:miter;stroke-miterlimit:6;stroke-dasharray:none;stroke-opacity:1"
         id="path52" /><path
         d="m 1555,1120 h 105"
         style="fill:none;stroke:#000000;stroke-width:9.75;stroke-linecap:round;stroke-linejoin:miter;stroke-miterlimit:6;stroke-dasharray:none;stroke-opacity:1"
         id="path54" /><path
         d="m 1285,1120 22.5,-52.5 45,105 45,-105 45,105 45,-105 45,105 22.5,-52.5"
         style="fill:none;stroke:#000000;stroke-width:9.75;stroke-linecap:round;stroke-linejoin:miter;stroke-miterlimit:6;stroke-dasharray:none;stroke-opacity:1"
         id="path56" /><path
         d="M 1885,1120 H 1780"
         style="fill:none;stroke:#000000;stroke-width:9.75;stroke-linecap:round;stroke-linejoin:miter;stroke-miterlimit:6;stroke-dasharray:none;stroke-opacity:1"
         id="path58" /><path
         d="m 2155,1120 h 105"
         style="fill:none;stroke:#000000;stroke-width:9.75;stroke-linecap:round;stroke-linejoin:miter;stroke-miterlimit:6;stroke-dasharray:none;stroke-opacity:1"
         id="path60" /><path
         d="m 1885,1120 22.5,-52.5 45,105 45,-105 45,105 45,-105 45,105 22.5,-52.5"
         style="fill:none;stroke:#000000;stroke-width:9.75;stroke-linecap:round;stroke-linejoin:miter;stroke-miterlimit:6;stroke-dasharray:none;stroke-opacity:1"
         id="path62" /><path
         d="M 580,1120 H 460 V 880"
         style="fill:none;stroke:#000000;stroke-width:9.75;stroke-linecap:round;stroke-linejoin:miter;stroke-miterlimit:6;stroke-dasharray:none;stroke-opacity:1"
         id="path64" /><path
         d="M 1180,1120 H 1060"
         style="fill:none;stroke:#000000;stroke-width:9.75;stroke-linecap:round;stroke-linejoin:miter;stroke-miterlimit:6;stroke-dasharray:none;stroke-opacity:1"
         id="path66" /><path
         d="M 1780,1120 H 1660"
         style="fill:none;stroke:#000000;stroke-width:9.75;stroke-linecap:round;stroke-linejoin:miter;stroke-miterlimit:6;stroke-dasharray:none;stroke-opacity:1"
         id="path68" /><path
         d="m 2320,880 v 240 h -60"
         style="fill:none;stroke:#000000;stroke-width:9.75;stroke-linecap:round;stroke-linejoin:miter;stroke-miterlimit:6;stroke-dasharray:none;stroke-opacity:1"
         id="path70" /><path
         d="M 1720,1120 V 880"
         style="fill:none;stroke:#000000;stroke-width:9.75;stroke-linecap:round;stroke-linejoin:miter;stroke-miterlimit:6;stroke-dasharray:none;stroke-opacity:1"
         id="path72" /><path
         d="M 1120,1120 V 880"
         style="fill:none;stroke:#000000;stroke-width:9.75;stroke-linecap:round;stroke-linejoin:miter;stroke-miterlimit:6;stroke-dasharray:none;stroke-opacity:1"
         id="path74" /><path
         d="M 2320,400 V 160 H 460 v 240"
         style="fill:none;stroke:#000000;stroke-width:9.75;stroke-linecap:round;stroke-linejoin:miter;stroke-miterlimit:6;stroke-dasharray:none;stroke-opacity:1"
         id="path76" /><path
         d="M 1720,160 V 400"
         style="fill:none;stroke:#000000;stroke-width:9.75;stroke-linecap:round;stroke-linejoin:miter;stroke-miterlimit:6;stroke-dasharray:none;stroke-opacity:1"
         id="path78" /><path
         d="M 1120,160 V 400"
         style="fill:none;stroke:#000000;stroke-width:9.75;stroke-linecap:round;stroke-linejoin:miter;stroke-miterlimit:6;stroke-dasharray:none;stroke-opacity:1"
         id="path80" /><g
         id="g82"
         transform="scale(10)"><text
           transform="matrix(1,0,0,-1,3.35625,64)"
           style="font-variant:normal;font-weight:normal;font-size:15px;font-family:Helvetica;-inkscape-font-specification:Helvetica;writing-mode:lr-tb;fill:#000000;fill-opacity:1;fill-rule:nonzero;stroke:none"
           id="text90"><tspan
             x="0 8.3400002 12.51"
             y="0"
             sodipodi:role="line"
             id="tspan84">6 V</tspan><tspan
             x="72.134399 80.474403 132.1344 140.4744 191.1156 199.4556"
             y="-60"
             sodipodi:role="line"
             id="tspan86">2k2k1k</tspan><tspan
             x="83.115601 91.455597 144.22501 152.565 204.16409 212.5041"
             y="0"
             sodipodi:role="line"
             id="tspan88">1k4k3k</tspan></text></g><path
         d="m 1142.5,1120 c 0,12.43 -10.07,22.5 -22.5,22.5 -12.43,0 -22.5,-10.07 -22.5,-22.5 0,-12.43 10.07,-22.5 22.5,-22.5 12.43,0 22.5,10.07 22.5,22.5"
         style="fill:#000000;fill-opacity:1;fill-rule:evenodd;stroke:none"
         id="path92" /><path
         d="m 1742.5,1120 c 0,12.43 -10.07,22.5 -22.5,22.5 -12.43,0 -22.5,-10.07 -22.5,-22.5 0,-12.43 10.07,-22.5 22.5,-22.5 12.43,0 22.5,10.07 22.5,22.5"
         style="fill:#000000;fill-opacity:1;fill-rule:evenodd;stroke:none"
         id="path94" /><path
         d="m 2342.5,1120 c 0,12.43 -10.07,22.5 -22.5,22.5 -12.43,0 -22.5,-10.07 -22.5,-22.5 0,-12.43 10.07,-22.5 22.5,-22.5 12.43,0 22.5,10.07 22.5,22.5"
         style="fill:#000000;fill-opacity:1;fill-rule:evenodd;stroke:none"
         id="path96" /><g
         id="g98"
         transform="scale(10)"><text
           transform="matrix(1,0,0,-1,105.55,118)"
           style="font-variant:normal;font-weight:normal;font-size:15px;font-family:Helvetica;-inkscape-font-specification:Helvetica;writing-mode:lr-tb;fill:#000000;fill-opacity:1;fill-rule:nonzero;stroke:none"
           id="text102"><tspan
             x="0"
             y="0"
             id="tspan100">V</tspan></text><text
           transform="matrix(1,0,0,-1,115.5551,114.68359)"
           style="font-variant:normal;font-weight:normal;font-size:10.05px;font-family:Helvetica;-inkscape-font-specification:Helvetica;writing-mode:lr-tb;fill:#000000;fill-opacity:1;fill-rule:nonzero;stroke:none"
           id="text106"><tspan
             x="0"
             y="0"
             id="tspan104">a</tspan></text><text
           transform="matrix(1,0,0,-1,165.55,118)"
           style="font-variant:normal;font-weight:normal;font-size:15px;font-family:Helvetica;-inkscape-font-specification:Helvetica;writing-mode:lr-tb;fill:#000000;fill-opacity:1;fill-rule:nonzero;stroke:none"
           id="text110"><tspan
             x="0"
             y="0"
             id="tspan108">V</tspan></text><text
           transform="matrix(1,0,0,-1,175.5551,114.68359)"
           style="font-variant:normal;font-weight:normal;font-size:10.05px;font-family:Helvetica;-inkscape-font-specification:Helvetica;writing-mode:lr-tb;fill:#000000;fill-opacity:1;fill-rule:nonzero;stroke:none"
           id="text114"><tspan
             x="0"
             y="0"
             id="tspan112">b</tspan></text><text
           transform="matrix(1,0,0,-1,225.55,118)"
           style="font-variant:normal;font-weight:normal;font-size:15px;font-family:Helvetica;-inkscape-font-specification:Helvetica;writing-mode:lr-tb;fill:#000000;fill-opacity:1;fill-rule:nonzero;stroke:none"
           id="text118"><tspan
             x="0"
             y="0"
             id="tspan116">V</tspan></text><text
           transform="matrix(1,0,0,-1,235.5551,114.68359)"
           style="font-variant:normal;font-weight:normal;font-size:10.05px;font-family:Helvetica;-inkscape-font-specification:Helvetica;writing-mode:lr-tb;fill:#000000;fill-opacity:1;fill-rule:nonzero;stroke:none"
           id="text122"><tspan
             x="0"
             y="0"
             id="tspan120">c</tspan></text></g><path
         d="m 955,910 c 37.5,18.75 48.75,18.75 105,30 -56.25,11.25 -67.5,11.25 -105,30 7.5,-22.5 7.5,-37.5 0,-60"
         style="fill:#000000;fill-opacity:1;fill-rule:evenodd;stroke:none"
         id="path124" /><path
         d="m 1555,910 c 37.5,18.75 48.75,18.75 105,30 -56.25,11.25 -67.5,11.25 -105,30 7.5,-22.5 7.5,-37.5 0,-60"
         style="fill:#000000;fill-opacity:1;fill-rule:evenodd;stroke:none"
         id="path126" /><path
         d="m 2155,910 c 37.5,18.75 48.75,18.75 105,30 -56.25,11.25 -67.5,11.25 -105,30 7.5,-22.5 7.5,-37.5 0,-60"
         style="fill:#000000;fill-opacity:1;fill-rule:evenodd;stroke:none"
         id="path128" /><path
         d="m 1210,325 c 18.75,-37.5 18.75,-48.75 30,-105 11.25,56.25 11.25,67.5 30,105 -22.5,-7.5 -37.5,-7.5 -60,0"
         style="fill:#000000;fill-opacity:1;fill-rule:evenodd;stroke:none"
         id="path130" /><path
         d="m 1810,325 c 18.75,-37.5 18.75,-48.75 30,-105 11.25,56.25 11.25,67.5 30,105 -22.5,-7.5 -37.5,-7.5 -60,0"
         style="fill:#000000;fill-opacity:1;fill-rule:evenodd;stroke:none"
         id="path132" /><path
         d="m 2410,325 c 18.75,-37.5 18.75,-48.75 30,-105 11.25,56.25 11.25,67.5 30,105 -22.5,-7.5 -37.5,-7.5 -60,0"
         style="fill:#000000;fill-opacity:1;fill-rule:evenodd;stroke:none"
         id="path134" /><path
         d="M 1000,940 H 640"
         style="fill:none;stroke:#000000;stroke-width:9.75;stroke-linecap:round;stroke-linejoin:miter;stroke-miterlimit:6;stroke-dasharray:none;stroke-opacity:1"
         id="path136" /><path
         d="M 1600,940 H 1240"
         style="fill:none;stroke:#000000;stroke-width:9.75;stroke-linecap:round;stroke-linejoin:miter;stroke-miterlimit:6;stroke-dasharray:none;stroke-opacity:1"
         id="path138" /><path
         d="M 2200,940 H 1840"
         style="fill:none;stroke:#000000;stroke-width:9.75;stroke-linecap:round;stroke-linejoin:miter;stroke-miterlimit:6;stroke-dasharray:none;stroke-opacity:1"
         id="path140" /><path
         d="M 1240,280 V 640"
         style="fill:none;stroke:#000000;stroke-width:9.75;stroke-linecap:round;stroke-linejoin:miter;stroke-miterlimit:6;stroke-dasharray:none;stroke-opacity:1"
         id="path142" /><path
         d="M 1840,280 V 640"
         style="fill:none;stroke:#000000;stroke-width:9.75;stroke-linecap:round;stroke-linejoin:miter;stroke-miterlimit:6;stroke-dasharray:none;stroke-opacity:1"
         id="path144" /><path
         d="M 2440,280 V 640"
         style="fill:none;stroke:#000000;stroke-width:9.75;stroke-linecap:round;stroke-linejoin:miter;stroke-miterlimit:6;stroke-dasharray:none;stroke-opacity:1"
         id="path146" /><g
         id="g148"
         transform="scale(10)"><text
           transform="matrix(1,0,0,-1,74.5016,82)"
           style="font-variant:normal;font-weight:normal;font-size:15px;font-family:Helvetica;-inkscape-font-specification:Helvetica;writing-mode:lr-tb;fill:#000000;fill-opacity:1;fill-rule:nonzero;stroke:none"
           id="text152"><tspan
             x="0"
             y="0"
             id="tspan150">I</tspan></text><text
           transform="matrix(1,0,0,-1,78.67152,78.68359)"
           style="font-variant:normal;font-weight:normal;font-size:10.05px;font-family:Helvetica;-inkscape-font-specification:Helvetica;writing-mode:lr-tb;fill:#000000;fill-opacity:1;fill-rule:nonzero;stroke:none"
           id="text156"><tspan
             x="0"
             y="0"
             id="tspan154">1</tspan></text><text
           transform="matrix(1,0,0,-1,134.50162,82)"
           style="font-variant:normal;font-weight:normal;font-size:15px;font-family:Helvetica;-inkscape-font-specification:Helvetica;writing-mode:lr-tb;fill:#000000;fill-opacity:1;fill-rule:nonzero;stroke:none"
           id="text160"><tspan
             x="0"
             y="0"
             id="tspan158">I</tspan></text><text
           transform="matrix(1,0,0,-1,138.67154,78.68359)"
           style="font-variant:normal;font-weight:normal;font-size:10.05px;font-family:Helvetica;-inkscape-font-specification:Helvetica;writing-mode:lr-tb;fill:#000000;fill-opacity:1;fill-rule:nonzero;stroke:none"
           id="text164"><tspan
             x="0"
             y="0"
             id="tspan162">2</tspan></text><text
           transform="matrix(1,0,0,-1,128.50164,45.99999)"
           style="font-variant:normal;font-weight:normal;font-size:15px;font-family:Helvetica;-inkscape-font-specification:Helvetica;writing-mode:lr-tb;fill:#000000;fill-opacity:1;fill-rule:nonzero;stroke:none"
           id="text168"><tspan
             x="0"
             y="0"
             id="tspan166">I</tspan></text><text
           transform="matrix(1,0,0,-1,132.67156,42.68358)"
           style="font-variant:normal;font-weight:normal;font-size:10.05px;font-family:Helvetica;-inkscape-font-specification:Helvetica;writing-mode:lr-tb;fill:#000000;fill-opacity:1;fill-rule:nonzero;stroke:none"
           id="text172"><tspan
             x="0"
             y="0"
             id="tspan170">3</tspan></text><text
           transform="matrix(1,0,0,-1,194.50166,81.99998)"
           style="font-variant:normal;font-weight:normal;font-size:15px;font-family:Helvetica;-inkscape-font-specification:Helvetica;writing-mode:lr-tb;fill:#000000;fill-opacity:1;fill-rule:nonzero;stroke:none"
           id="text176"><tspan
             x="0"
             y="0"
             id="tspan174">I</tspan></text><text
           transform="matrix(1,0,0,-1,198.67158,78.68357)"
           style="font-variant:normal;font-weight:normal;font-size:10.05px;font-family:Helvetica;-inkscape-font-specification:Helvetica;writing-mode:lr-tb;fill:#000000;fill-opacity:1;fill-rule:nonzero;stroke:none"
           id="text180"><tspan
             x="0"
             y="0"
             id="tspan178">4</tspan></text><text
           transform="matrix(1,0,0,-1,188.50168,45.99997)"
           style="font-variant:normal;font-weight:normal;font-size:15px;font-family:Helvetica;-inkscape-font-specification:Helvetica;writing-mode:lr-tb;fill:#000000;fill-opacity:1;fill-rule:nonzero;stroke:none"
           id="text184"><tspan
             x="0"
             y="0"
             id="tspan182">I</tspan></text><text
           transform="matrix(1,0,0,-1,192.6716,42.68356)"
           style="font-variant:normal;font-weight:normal;font-size:10.05px;font-family:Helvetica;-inkscape-font-specification:Helvetica;writing-mode:lr-tb;fill:#000000;fill-opacity:1;fill-rule:nonzero;stroke:none"
           id="text188"><tspan
             x="0"
             y="0"
             id="tspan186">5</tspan></text><text
           transform="matrix(1,0,0,-1,248.5017,45.99997)"
           style="font-variant:normal;font-weight:normal;font-size:15px;font-family:Helvetica;-inkscape-font-specification:Helvetica;writing-mode:lr-tb;fill:#000000;fill-opacity:1;fill-rule:nonzero;stroke:none"
           id="text192"><tspan
             x="0"
             y="0"
             id="tspan190">I</tspan></text><text
           transform="matrix(1,0,0,-1,252.67162,42.68356)"
           style="font-variant:normal;font-weight:normal;font-size:10.05px;font-family:Helvetica;-inkscape-font-specification:Helvetica;writing-mode:lr-tb;fill:#000000;fill-opacity:1;fill-rule:nonzero;stroke:none"
           id="text196"><tspan
             x="0"
             y="0"
             id="tspan194">6</tspan></text></g><path
         d="m 1360,100 v 60"
         style="fill:none;stroke:#000000;stroke-width:9.75;stroke-linecap:round;stroke-linejoin:miter;stroke-miterlimit:6;stroke-dasharray:none;stroke-opacity:1"
         id="path198" /><path
         d="m 1300,100 60,-60 60,60 h -120"
         style="fill:none;stroke:#000000;stroke-width:9.75;stroke-linecap:round;stroke-linejoin:miter;stroke-miterlimit:6;stroke-dasharray:none;stroke-opacity:1"
         id="path200" /></g></g></svg>
