<?xml version="1.0" encoding="UTF-8" standalone="no"?>
<svg
   xmlns:dc="http://purl.org/dc/elements/1.1/"
   xmlns:cc="http://creativecommons.org/ns#"
   xmlns:rdf="http://www.w3.org/1999/02/22-rdf-syntax-ns#"
   xmlns:svg="http://www.w3.org/2000/svg"
   xmlns="http://www.w3.org/2000/svg"
   xmlns:sodipodi="http://sodipodi.sourceforge.net/DTD/sodipodi-0.dtd"
   xmlns:inkscape="http://www.inkscape.org/namespaces/inkscape"
   version="1.1"
   id="svg2"
   xml:space="preserve"
   width="170.66667"
   height="170.66667"
   viewBox="0 0 170.66667 170.66667"
   sodipodi:docname="square_circle.eps"><metadata
     id="metadata8"><rdf:RDF><cc:Work
         rdf:about=""><dc:format>image/svg+xml</dc:format><dc:type
           rdf:resource="http://purl.org/dc/dcmitype/StillImage" /></cc:Work></rdf:RDF></metadata><defs
     id="defs6" /><sodipodi:namedview
     pagecolor="#ffffff"
     bordercolor="#666666"
     borderopacity="1"
     objecttolerance="10"
     gridtolerance="10"
     guidetolerance="10"
     inkscape:pageopacity="0"
     inkscape:pageshadow="2"
     inkscape:window-width="640"
     inkscape:window-height="480"
     id="namedview4" /><g
     id="g10"
     inkscape:groupmode="layer"
     inkscape:label="ink_ext_XXXXXX"
     transform="matrix(1.3333333,0,0,-1.3333333,0,170.66667)"><g
       id="g12"
       transform="scale(0.1)"><path
         d="M 40,40 H 1240 V 1240 H 40 Z"
         style="fill:none;stroke:#000000;stroke-width:9.75;stroke-linecap:round;stroke-linejoin:miter;stroke-miterlimit:6;stroke-dasharray:none;stroke-opacity:1"
         id="path14" /><path
         d="M 40,40 H 1240 V 1240 H 40 Z"
         style="fill:#f3e3fd;fill-opacity:1;fill-rule:evenodd;stroke:none"
         id="path16" /><path
         d="M 40,40 H 1240 V 1240 H 40 Z"
         style="fill:none;stroke:#a020f0;stroke-width:9.75;stroke-linecap:round;stroke-linejoin:miter;stroke-miterlimit:6;stroke-dasharray:none;stroke-opacity:1"
         id="path18" /><path
         d="m 1240,640 c 0,331.367 -268.633,600 -600,600 C 308.633,1240 40,971.367 40,640 40,308.633 308.633,40 640,40 c 331.367,0 600,268.633 600,600"
         style="fill:#f9dfdf;fill-opacity:1;fill-rule:evenodd;stroke:none"
         id="path20" /><path
         d="m 1240,640 c 0,331.367 -268.633,600 -600,600 C 308.633,1240 40,971.367 40,640 40,308.633 308.633,40 640,40 c 331.367,0 600,268.633 600,600"
         style="fill:none;stroke:#cd0000;stroke-width:9.75;stroke-linecap:round;stroke-linejoin:miter;stroke-miterlimit:6;stroke-dasharray:none;stroke-opacity:1"
         id="path22" /></g></g></svg>
